# xmcd
#
# Track frame offsets:
#	300
#	16776
#	30369
#	43826
#	55901
#	68129
#	82511
#	94086
#	111775
#	122968
#
# Disc length: 1854 seconds
#
# Revision: 0
# Processed by: cddbd v1.5.1PL0 Copyright (c) Steve Scherf et al.
# Submitted via: MusicWizard 7.1.1b
#
DISCID=74073a0a
DTITLE=Johnny Cash - The Baron
DYEAR=1982
DGENRE=Country
TTITLE0=The Baron
TTITLE1=Mobile Bay
TTITLE2=The Hard Way
TTITLE3=A Ceiling, Four Walls And A Floor
TTITLE4=Hey, Hey Train
TTITLE5=The Reverend Mr. Black - Lonesome Valley (Medley)
TTITLE6=The Blues Keep Gettin' Bluer
TTITLE7=Chattanooga City Limit Sign
TTITLE8=Thanks To You
TTITLE9=The Greatest Love Affair
EXTD=(c)1981 Columbia Records\nKatalog: FC 37179\nupc 0746437179290\n
EXTT0=
EXTT1=
EXTT2=
EXTT3=
EXTT4=
EXTT5=
EXTT6=
EXTT7=
EXTT8=
EXTT9=
PLAYORDER=
